<svg width="70" height="65" viewBox="0 0 70 65" fill="none" xmlns="http://www.w3.org/2000/svg">
<path d="M35.186 22.3196C36.7721 29.4203 39.9513 35.5934 45.7191 41.0778C41.9968 39.9372 38.0191 39.2529 33.7594 39.3276C30.3618 39.3868 27.1418 39.9353 24.1144 40.8011C29.5167 35.8741 33.3044 30.0403 35.186 22.3196ZM34.4154 0.00535317C28.5114 0.109064 22.6768 1.70214 17.4527 4.68896C17.4553 4.69734 17.458 4.70514 17.4606 4.71352L17.456 4.71597C18.8831 21.6694 14.6274 26.7097 0.00854325 34.4952C0.00854325 34.5075 0.00854325 34.5198 0.00854325 34.5313L0.00397106 34.5339C-0.190458 46.8867 6.76997 58.8423 17.5306 64.9015L17.5447 64.8925C17.5447 64.8925 17.5506 64.8957 17.5531 64.897C24.2388 60.308 29.2081 58.138 34.092 58.0525C39.5073 57.9578 44.8163 60.4252 52.2466 65C52.2616 64.9916 52.2757 64.9832 52.29 64.9756L52.3023 64.9827C52.3081 64.9801 52.314 64.9762 52.3199 64.973L52.3257 64.9762C63.4259 58.698 69.9923 47.1017 70 34.7263L69.9967 34.7244L69.9916 34.7218C69.9916 34.7187 69.9916 34.7155 69.9916 34.7122C54.5009 27.4267 52.2284 21.3109 52.7476 4.81578C52.7204 4.79975 52.6944 4.78358 52.6673 4.76942V4.76234C46.9363 1.44402 40.6376 -0.103413 34.4154 0.00535317Z" fill="white"/>
</svg>
